{
  "accessors": [
    {
      "bufferView": 2,
      "componentType": 5126,
      "count": 65532,
      "max": [
        4.775335788726807,
        11.088181495666504,
        3.7848451137542725
      ],
      "min": [
        -2.740053415298462,
        8.863886833190918,
        -7.237353324890137
      ],
      "type": "VEC3"
    },
    {
      "bufferView": 2,
      "byteOffset": 786384,
      "componentType": 5126,
      "count": 65532,
      "max": [
        0.9999901652336121,
        0.999997615814209,
        0.9999638795852661
      ],
      "min": [
        -0.9999915361404419,
        -0.999991238117218,
        -0.9999510049819946
      ],
      "type": "VEC3"
    },
    {
      "bufferView": 1,
      "componentType": 5126,
      "count": 65532,
      "max": [
        0.9980400204658508,
        0.9959200024604797
      ],
      "min": [
        0.0019499999471008778,
        0.05482000112533569
      ],
      "type": "VEC2"
    },
    {
      "bufferView": 0,
      "componentType": 5125,
      "count": 333756,
      "type": "SCALAR"
    },
    {
      "bufferView": 2,
      "byteOffset": 1572768,
      "componentType": 5126,
      "count": 33823,
      "max": [
        4.773660182952881,
        11.088181495666504,
        3.7848451137542725
      ],
      "min": [
        -2.763137102127075,
        8.864740371704102,
        -7.237353324890137
      ],
      "type": "VEC3"
    },
    {
      "bufferView": 2,
      "byteOffset": 1978644,
      "componentType": 5126,
      "count": 33823,
      "max": [
        0.9999939799308777,
        0.999997615814209,
        0.9999505877494812
      ],
      "min": [
        -0.9999915361404419,
        -0.9999481439590454,
        -0.9999510049819946
      ],
      "type": "VEC3"
    },
    {
      "bufferView": 1,
      "byteOffset": 524256,
      "componentType": 5126,
      "count": 33823,
      "max": [
        0.9887800216674805,
        0.9942100048065186
      ],
      "min": [
        0.007209999952465296,
        0.004259999841451645
      ],
      "type": "VEC2"
    },
    {
      "bufferView": 0,
      "byteOffset": 1335024,
      "componentType": 5125,
      "count": 113304,
      "type": "SCALAR"
    },
    {
      "bufferView": 2,
      "byteOffset": 2384520,
      "componentType": 5126,
      "count": 48842,
      "max": [
        3.0446391105651855,
        10.82529354095459,
        2.150270700454712
      ],
      "min": [
        -0.9935121536254883,
        8.974515914916992,
        -4.918891429901123
      ],
      "type": "VEC3"
    },
    {
      "bufferView": 2,
      "byteOffset": 2970624,
      "componentType": 5126,
      "count": 48842,
      "max": [
        0.999991238117218,
        0.9999960064888,
        0.9990068078041077
      ],
      "min": [
        -0.9999878406524658,
        -0.999954879283905,
        -0.9999406337738037
      ],
      "type": "VEC3"
    },
    {
      "bufferView": 1,
      "byteOffset": 794840,
      "componentType": 5126,
      "count": 48842,
      "max": [
        0.6912699937820435,
        0.660610020160675
      ],
      "min": [
        0.004470000043511391,
        0.0019499999471008778
      ],
      "type": "VEC2"
    },
    {
      "bufferView": 0,
      "byteOffset": 1788240,
      "componentType": 5125,
      "count": 286200,
      "type": "SCALAR"
    }
  ],
  "asset": {
    "extras": {
      "author": "iconic (https://sketchfab.com/iconic)",
      "license": "CC-BY-4.0 (http://creativecommons.org/licenses/by/4.0/)",
      "source": "https://sketchfab.com/3d-models/young-man-t-pose-926eede26daf42ddb2fb9ee7314ee27f",
      "title": "Young Man T Pose"
    },
    "generator": "Sketchfab-12.68.0",
    "version": "2.0"
  },
  "bufferViews": [
    {
      "buffer": 0,
      "byteLength": 2933040,
      "name": "floatBufferViews",
      "target": 34963
    },
    {
      "buffer": 0,
      "byteLength": 1185576,
      "byteOffset": 2933040,
      "byteStride": 8,
      "name": "floatBufferViews",
      "target": 34962
    },
    {
      "buffer": 0,
      "byteLength": 3556728,
      "byteOffset": 4118616,
      "byteStride": 12,
      "name": "floatBufferViews",
      "target": 34962
    }
  ],
  "buffers": [
    {
      "byteLength": 7675344,
      "uri": "scene.bin"
    }
  ],
  "extensionsUsed": [
    "KHR_materials_unlit"
  ],
  "images": [
    {
      "uri": "textures/defaultMat_baseColor.jpeg"
    }
  ],
  "materials": [
    {
      "doubleSided": true,
      "extensions": {
        "KHR_materials_unlit": {}
      },
      "name": "defaultMat",
      "pbrMetallicRoughness": {
        "baseColorTexture": {
          "index": 0
        },
        "metallicFactor": 0.0
      }
    }
  ],
  "meshes": [
    {
      "name": "Object_0",
      "primitives": [
        {
          "attributes": {
            "NORMAL": 1,
            "POSITION": 0,
            "TEXCOORD_0": 2
          },
          "indices": 3,
          "material": 0,
          "mode": 4
        }
      ]
    },
    {
      "name": "Object_1",
      "primitives": [
        {
          "attributes": {
            "NORMAL": 5,
            "POSITION": 4,
            "TEXCOORD_0": 6
          },
          "indices": 7,
          "material": 0,
          "mode": 4
        }
      ]
    },
    {
      "name": "Object_2",
      "primitives": [
        {
          "attributes": {
            "NORMAL": 9,
            "POSITION": 8,
            "TEXCOORD_0": 10
          },
          "indices": 11,
          "material": 0,
          "mode": 4
        }
      ]
    }
  ],
  "nodes": [
    {
      "children": [
        1
      ],
      "matrix": [
        1.0,
        0.0,
        0.0,
        0.0,
        0.0,
        2.220446049250313e-16,
        -1.0,
        0.0,
        0.0,
        1.0,
        2.220446049250313e-16,
        0.0,
        0.0,
        0.0,
        0.0,
        1.0
      ],
      "name": "Sketchfab_model"
    },
    {
      "children": [
        2,
        3,
        4
      ],
      "name": "taylan_Kaya_Final.OBJ.cleaner.materialmerger.gles"
    },
    {
      "mesh": 0,
      "name": "Object_2"
    },
    {
      "mesh": 1,
      "name": "Object_3"
    },
    {
      "mesh": 2,
      "name": "Object_4"
    }
  ],
  "samplers": [
    {
      "magFilter": 9729,
      "minFilter": 9987,
      "wrapS": 10497,
      "wrapT": 10497
    }
  ],
  "scene": 0,
  "scenes": [
    {
      "name": "Sketchfab_Scene",
      "nodes": [
        0
      ]
    }
  ],
  "textures": [
    {
      "sampler": 0,
      "source": 0
    }
  ]
}
